<svg xmlns="http://www.w3.org/2000/svg" viewBox="0 0 78.08 112"><defs><style>.cls-1{fill:#fff;}</style></defs><g id="Layer_2" data-name="Layer 2"><g id="Layer_1-2" data-name="Layer 1"><path class="cls-1" d="M0,112V0H42.88Q54.4,0,62.24,4.16A28.92,28.92,0,0,1,74.08,15.28a30.81,30.81,0,0,1,4,15.6v3.84A23.57,23.57,0,0,1,63,56.8v2.88A13,13,0,0,1,75.2,73.28V112H54.08V78.4a9.44,9.44,0,0,0-2-6.24q-2-2.4-6.64-2.4H21.12V112ZM21.12,29.44A20.17,20.17,0,0,0,41.28,49.6h0Q49,49.6,53,45.92t4-10.08V33.92a13.39,13.39,0,0,0-4-9.68q-4-4.08-11.68-4.08H21.12Z"/></g></g></svg>