<svg xmlns="http://www.w3.org/2000/svg" viewBox="0 0 542.08 150.08"><defs><style>.cls-1{fill:#11182a;}</style></defs><g id="Layer_2" data-name="Layer 2"><g id="Layer_1-2" data-name="Layer 1"><path class="cls-1" d="M0,118.08V6.08H42.88q11.52,0,19.36,4.16A28.92,28.92,0,0,1,74.08,21.36a30.81,30.81,0,0,1,4,15.6V40.8A23.57,23.57,0,0,1,63,62.88v2.88A13,13,0,0,1,75.2,79.36v38.72H54.08V84.48a9.44,9.44,0,0,0-2-6.24q-2-2.4-6.64-2.4H21.12v42.24ZM21.12,35.52A20.17,20.17,0,0,0,41.28,55.68h0Q49,55.68,53,52t4-10.08V40a13.39,13.39,0,0,0-4-9.68q-4-4.08-11.68-4.08H21.12Z"/><path class="cls-1" d="M93,118.08V98.88h16.32v-41H94.88V38.72h33.6V50.24h2.88A19.21,19.21,0,0,1,139,40.08a22.63,22.63,0,0,1,12.8-3.6q11.83,0,19,7.44t7.2,22.64v3.52L157.28,72V69.76q0-6.56-3.36-10.48t-10.08-3.92A13,13,0,0,0,133.28,60q-3.84,4.64-3.84,13.28v25.6h18.24v19.2Z"/><path class="cls-1" d="M233.92,120.32a42.6,42.6,0,0,1-21-5,35.47,35.47,0,0,1-14.24-14.48q-5.13-9.43-5.12-22.72v-1A40.71,40.71,0,0,1,199,55.84,39,39,0,0,1,213.52,41.6a40,40,0,0,1,20.08-5.12A40.59,40.59,0,0,1,251.2,40a35.8,35.8,0,0,1,12.08,9.12,39.77,39.77,0,0,1,9.36,25.12V85H214.4a15.23,15.23,0,0,0,5.92,11.6,20.37,20.37,0,0,0,13.28,4.56q7.52,0,11.6-2.72a15.23,15.23,0,0,0,5.68-6.24l17.28,9.6a30,30,0,0,1-5.84,8.32,32.51,32.51,0,0,1-11,7.28Q244.48,120.32,233.92,120.32Zm-19.2-52.64h37.44a14.24,14.24,0,0,0-6-9.28q-5-3.67-12.72-3.68T221,58.64A17.71,17.71,0,0,0,214.72,67.68Z"/><path class="cls-1" d="M305.6,150.08v-19.2h41.28q4.32,0,4.32-4.8V106.56h-2.88a25.38,25.38,0,0,1-7.92,9.52q-5.52,4.24-16.88,4.24a32.6,32.6,0,0,1-30.08-18.48q-4.65-9-4.64-22V77q0-12.79,4.88-21.84a34.91,34.91,0,0,1,13-13.84,34,34,0,0,1,17.68-4.8q9.6,0,15.28,3.6a23.37,23.37,0,0,1,8.72,10.16h2.88V38.72h20.16V137.6a12.32,12.32,0,0,1-3.44,9,11.88,11.88,0,0,1-8.88,3.52Zm24.48-49q9.44,0,15.28-6t5.84-15.76V77.44q0-9.75-5.84-15.76t-15.28-6q-9.29,0-15.2,5.92T309,77.44v1.92q0,9.92,5.92,15.84T330.08,101.12Z"/><path class="cls-1" d="M393.92,118.08V98.88H420.8v-41h-25V38.72H441V98.88h23v19.2Zm36.8-87.68A14.72,14.72,0,0,1,420,26a14.53,14.53,0,0,1-4.48-10.8A14.54,14.54,0,0,1,420,4.4a15.26,15.26,0,0,1,21.44,0,14.58,14.58,0,0,1,4.48,10.8A14.56,14.56,0,0,1,441.44,26,14.74,14.74,0,0,1,430.72,30.4Z"/><path class="cls-1" d="M526.88,120.32a14.76,14.76,0,0,1-10.72-4.4,15.26,15.26,0,0,1,0-21.6,15.26,15.26,0,0,1,21.44,0,15.26,15.26,0,0,1,0,21.6A14.78,14.78,0,0,1,526.88,120.32Z"/></g></g></svg>